M48
; DRILL file {KiCad 7.0.8} date 2025 January 24, Friday 11:11:37
; FORMAT={-:-/ absolute / metric / decimal}
; #@! TF.CreationDate,2025-01-24T11:11:37-08:00
; #@! TF.GenerationSoftware,Kicad,Pcbnew,7.0.8
; #@! TF.FileFunction,Plated,1,2,PTH
FMAT,2
METRIC
; #@! TA.AperFunction,Plated,PTH,ComponentDrill
T1C0.760
; #@! TA.AperFunction,Plated,PTH,ComponentDrill
T2C0.800
%
G90
G05
T1
X152.4Y-58.54
X153.67Y-56.0
X154.94Y-58.54
X156.21Y-56.0
X157.48Y-58.54
X158.75Y-56.0
X160.02Y-58.54
X161.29Y-56.0
X172.27Y-58.54
X173.54Y-56.0
X174.81Y-58.54
X176.08Y-56.0
X177.35Y-58.54
X178.62Y-56.0
X179.89Y-58.54
X181.16Y-56.0
T2
X155.25Y-65.7
X155.25Y-68.2
X155.25Y-70.7
X158.45Y-65.7
X158.45Y-68.2
X158.45Y-70.7
X175.157Y-65.7
X175.157Y-68.2
X175.157Y-70.7
X178.357Y-65.7
X178.357Y-68.2
X178.357Y-70.7
T0
M30
